<svg xmlns="http://www.w3.org/2000/svg" viewBox="0 0 512 512">
  <defs>
    <linearGradient id="cardGradientMaskable" x1="112" y1="104" x2="400" y2="408" gradientUnits="userSpaceOnUse">
      <stop offset="0" stop-color="#b0469b"/>
      <stop offset="1" stop-color="#3455c5"/>
    </linearGradient>
  </defs>
  <rect width="512" height="512" rx="164" fill="#050505"/>
  <rect x="92" y="112" width="328" height="292" rx="24" fill="url(#cardGradientMaskable)"/>
  <g fill="none" stroke="#050505" stroke-linecap="round" stroke-linejoin="round">
    <rect x="116" y="136" width="24" height="24" rx="2" stroke-width="10"/>
    <rect x="116" y="178" width="24" height="24" rx="2" stroke-width="10"/>
    <path d="M164 148h84" stroke-width="12"/>
    <path d="M164 190h84" stroke-width="12"/>
    <path d="M164 232h84" stroke-width="12"/>
    <rect x="274" y="266" width="38" height="108" rx="4" stroke-width="12"/>
    <rect x="334" y="220" width="38" height="154" rx="4" stroke-width="12"/>
    <rect x="394" y="248" width="38" height="126" rx="4" stroke-width="12"/>
    <path d="M120 348a80 80 0 1 1 80-80h-80z" fill="#3c56b6" stroke-width="12"/>
    <path d="M166 224a62 62 0 0 1 62 62h-62z" fill="#f4c4df" stroke-width="12"/>
  </g>
</svg>
