<svg xmlns="http://www.w3.org/2000/svg" viewBox="0 0 512 512">
  <defs>
    <linearGradient id="cardGradient" x1="96" y1="88" x2="408" y2="424" gradientUnits="userSpaceOnUse">
      <stop offset="0" stop-color="#b0469b"/>
      <stop offset="1" stop-color="#3455c5"/>
    </linearGradient>
  </defs>
  <rect width="512" height="512" rx="144" fill="#050505"/>
  <rect x="68" y="90" width="376" height="334" rx="26" fill="url(#cardGradient)"/>
  <g fill="none" stroke="#050505" stroke-linecap="round" stroke-linejoin="round">
    <rect x="96" y="120" width="30" height="30" rx="2" stroke-width="10"/>
    <rect x="96" y="168" width="30" height="30" rx="2" stroke-width="10"/>
    <path d="M157 133h91" stroke-width="12"/>
    <path d="M157 181h91" stroke-width="12"/>
    <path d="M157 229h91" stroke-width="12"/>
    <rect x="276" y="268" width="44" height="126" rx="4" stroke-width="12"/>
    <rect x="346" y="214" width="44" height="180" rx="4" stroke-width="12"/>
    <rect x="416" y="248" width="44" height="146" rx="4" stroke-width="12"/>
    <path d="M104 364a92 92 0 1 1 92-92h-92z" fill="#3c56b6" stroke-width="12"/>
    <path d="M156 220a72 72 0 0 1 72 72h-72z" fill="#f4c4df" stroke-width="12"/>
  </g>
</svg>
